<mxfile host="app.diagrams.net" modified="2023-08-17T05:41:49.128Z" agent="Mozilla/5.0 (Windows NT 10.0; Win64; x64) AppleWebKit/537.36 (KHTML, like Gecko) Chrome/115.0.0.0 Safari/537.36 Edg/115.0.1901.203" etag="Le5_vMuaDW9CYz9rRQ8V" version="21.6.7" type="device">
  <diagram name="Page-1" id="oFE_3LYw02PxmboLN4aH">
    <mxGraphModel dx="1195" dy="657" grid="1" gridSize="10" guides="1" tooltips="1" connect="1" arrows="1" fold="1" page="1" pageScale="1" pageWidth="3300" pageHeight="4681" math="0" shadow="0">
      <root>
        <mxCell id="0" />
        <mxCell id="1" parent="0" />
        <mxCell id="1fBMuFGvleZSVorCwz0i-1" value="START&lt;br&gt;Init Device" style="rounded=0;whiteSpace=wrap;html=1;" parent="1" vertex="1">
          <mxGeometry x="670" y="420" width="80" height="50" as="geometry" />
        </mxCell>
        <mxCell id="1fBMuFGvleZSVorCwz0i-10" value="Option" style="rhombus;whiteSpace=wrap;html=1;shadow=0;fontFamily=Helvetica;fontSize=12;align=center;strokeWidth=1;spacing=6;spacingTop=-4;" parent="1" vertex="1">
          <mxGeometry x="660" y="520" width="100" height="80" as="geometry" />
        </mxCell>
        <mxCell id="1fBMuFGvleZSVorCwz0i-16" value="Earse Flash Memory" style="rounded=1;whiteSpace=wrap;html=1;fontSize=12;glass=0;strokeWidth=1;shadow=0;" parent="1" vertex="1">
          <mxGeometry x="360" y="690" width="120" height="40" as="geometry" />
        </mxCell>
        <mxCell id="1fBMuFGvleZSVorCwz0i-17" value="" style="rounded=0;html=1;jettySize=auto;orthogonalLoop=1;fontSize=11;endArrow=block;endFill=0;endSize=8;strokeWidth=1;shadow=0;labelBackgroundColor=none;edgeStyle=orthogonalEdgeStyle;exitX=0.5;exitY=1;exitDx=0;exitDy=0;entryX=0.5;entryY=0;entryDx=0;entryDy=0;" parent="1" source="1fBMuFGvleZSVorCwz0i-1" target="1fBMuFGvleZSVorCwz0i-10" edge="1">
          <mxGeometry relative="1" as="geometry">
            <mxPoint x="640" y="460" as="sourcePoint" />
            <mxPoint x="630" y="480" as="targetPoint" />
          </mxGeometry>
        </mxCell>
        <mxCell id="1fBMuFGvleZSVorCwz0i-21" value="Yes" style="rounded=0;html=1;jettySize=auto;orthogonalLoop=1;fontSize=11;endArrow=block;endFill=0;endSize=8;strokeWidth=1;shadow=0;labelBackgroundColor=none;edgeStyle=orthogonalEdgeStyle;entryX=0.5;entryY=0;entryDx=0;entryDy=0;" parent="1" source="1fBMuFGvleZSVorCwz0i-23" target="1fBMuFGvleZSVorCwz0i-27" edge="1">
          <mxGeometry x="-0.208" y="10" relative="1" as="geometry">
            <mxPoint as="offset" />
            <mxPoint x="430" y="1070" as="targetPoint" />
          </mxGeometry>
        </mxCell>
        <mxCell id="1fBMuFGvleZSVorCwz0i-22" value="No" style="edgeStyle=orthogonalEdgeStyle;rounded=0;html=1;jettySize=auto;orthogonalLoop=1;fontSize=11;endArrow=block;endFill=0;endSize=8;strokeWidth=1;shadow=0;labelBackgroundColor=none;" parent="1" source="1fBMuFGvleZSVorCwz0i-23" edge="1">
          <mxGeometry y="10" relative="1" as="geometry">
            <mxPoint as="offset" />
            <mxPoint x="320" y="910" as="targetPoint" />
          </mxGeometry>
        </mxCell>
        <mxCell id="1fBMuFGvleZSVorCwz0i-23" value="Checksum&lt;br&gt;ok ?" style="rhombus;whiteSpace=wrap;html=1;shadow=0;fontFamily=Helvetica;fontSize=12;align=center;strokeWidth=1;spacing=6;spacingTop=-4;" parent="1" vertex="1">
          <mxGeometry x="370" y="870" width="100" height="80" as="geometry" />
        </mxCell>
        <mxCell id="1fBMuFGvleZSVorCwz0i-27" value="Write Flash Memory" style="rounded=1;whiteSpace=wrap;html=1;fontSize=12;glass=0;strokeWidth=1;shadow=0;" parent="1" vertex="1">
          <mxGeometry x="360" y="1000" width="120" height="40" as="geometry" />
        </mxCell>
        <mxCell id="1fBMuFGvleZSVorCwz0i-28" value="Receive a hex file" style="rounded=1;whiteSpace=wrap;html=1;fontSize=12;glass=0;strokeWidth=1;shadow=0;" parent="1" vertex="1">
          <mxGeometry x="360" y="780" width="120" height="40" as="geometry" />
        </mxCell>
        <mxCell id="1fBMuFGvleZSVorCwz0i-29" value="" style="edgeStyle=orthogonalEdgeStyle;rounded=0;html=1;jettySize=auto;orthogonalLoop=1;fontSize=11;endArrow=block;endFill=0;endSize=8;strokeWidth=1;shadow=0;labelBackgroundColor=none;entryX=0.5;entryY=0;entryDx=0;entryDy=0;exitX=0.5;exitY=1;exitDx=0;exitDy=0;" parent="1" source="1fBMuFGvleZSVorCwz0i-16" target="1fBMuFGvleZSVorCwz0i-28" edge="1">
          <mxGeometry y="10" relative="1" as="geometry">
            <mxPoint as="offset" />
            <mxPoint x="429.71000000000004" y="780" as="sourcePoint" />
            <mxPoint x="429.71000000000004" y="840" as="targetPoint" />
          </mxGeometry>
        </mxCell>
        <mxCell id="1fBMuFGvleZSVorCwz0i-30" value="" style="edgeStyle=orthogonalEdgeStyle;rounded=0;html=1;jettySize=auto;orthogonalLoop=1;fontSize=11;endArrow=block;endFill=0;endSize=8;strokeWidth=1;shadow=0;labelBackgroundColor=none;exitX=0.5;exitY=1;exitDx=0;exitDy=0;entryX=0.5;entryY=0;entryDx=0;entryDy=0;" parent="1" source="1fBMuFGvleZSVorCwz0i-28" target="1fBMuFGvleZSVorCwz0i-23" edge="1">
          <mxGeometry y="10" relative="1" as="geometry">
            <mxPoint as="offset" />
            <mxPoint x="429.71000000000004" y="880" as="sourcePoint" />
            <mxPoint x="470" y="930" as="targetPoint" />
          </mxGeometry>
        </mxCell>
        <mxCell id="1fBMuFGvleZSVorCwz0i-33" value="" style="rounded=0;html=1;jettySize=auto;orthogonalLoop=1;fontSize=11;endArrow=block;endFill=0;endSize=8;strokeWidth=1;shadow=0;labelBackgroundColor=none;edgeStyle=orthogonalEdgeStyle;exitX=0.5;exitY=1;exitDx=0;exitDy=0;entryX=0.5;entryY=0;entryDx=0;entryDy=0;" parent="1" source="1fBMuFGvleZSVorCwz0i-27" target="1fBMuFGvleZSVorCwz0i-34" edge="1">
          <mxGeometry x="-0.1429" y="30" relative="1" as="geometry">
            <mxPoint as="offset" />
            <mxPoint x="420" y="1140" as="sourcePoint" />
            <mxPoint x="430" y="1170" as="targetPoint" />
          </mxGeometry>
        </mxCell>
        <mxCell id="1fBMuFGvleZSVorCwz0i-34" value="Cplt Update ?" style="rhombus;whiteSpace=wrap;html=1;shadow=0;fontFamily=Helvetica;fontSize=12;align=center;strokeWidth=1;spacing=6;spacingTop=-4;" parent="1" vertex="1">
          <mxGeometry x="370" y="1080" width="100" height="80" as="geometry" />
        </mxCell>
        <mxCell id="1fBMuFGvleZSVorCwz0i-35" value="No" style="edgeStyle=orthogonalEdgeStyle;rounded=0;html=1;jettySize=auto;orthogonalLoop=1;fontSize=11;endArrow=block;endFill=0;endSize=8;strokeWidth=1;shadow=0;labelBackgroundColor=none;exitX=0;exitY=0.5;exitDx=0;exitDy=0;entryX=0;entryY=0.5;entryDx=0;entryDy=0;" parent="1" source="1fBMuFGvleZSVorCwz0i-34" target="1fBMuFGvleZSVorCwz0i-28" edge="1">
          <mxGeometry y="10" relative="1" as="geometry">
            <mxPoint as="offset" />
            <mxPoint x="260" y="1190" as="sourcePoint" />
            <mxPoint x="320" y="860" as="targetPoint" />
            <Array as="points">
              <mxPoint x="320" y="1120" />
              <mxPoint x="320" y="800" />
            </Array>
          </mxGeometry>
        </mxCell>
        <mxCell id="1fBMuFGvleZSVorCwz0i-36" value="Yes" style="rounded=0;html=1;jettySize=auto;orthogonalLoop=1;fontSize=11;endArrow=block;endFill=0;endSize=8;strokeWidth=1;shadow=0;labelBackgroundColor=none;edgeStyle=orthogonalEdgeStyle;exitX=0.5;exitY=1;exitDx=0;exitDy=0;entryX=0.5;entryY=0;entryDx=0;entryDy=0;" parent="1" source="1fBMuFGvleZSVorCwz0i-34" target="1fBMuFGvleZSVorCwz0i-37" edge="1">
          <mxGeometry x="-0.208" y="10" relative="1" as="geometry">
            <mxPoint as="offset" />
            <mxPoint x="429.71000000000004" y="1270" as="sourcePoint" />
            <mxPoint x="430" y="1320" as="targetPoint" />
          </mxGeometry>
        </mxCell>
        <mxCell id="1fBMuFGvleZSVorCwz0i-37" value="Deinit Peripheral" style="rounded=1;whiteSpace=wrap;html=1;fontSize=12;glass=0;strokeWidth=1;shadow=0;" parent="1" vertex="1">
          <mxGeometry x="362.5" y="1210" width="115" height="40" as="geometry" />
        </mxCell>
        <mxCell id="1fBMuFGvleZSVorCwz0i-38" value="Jump to application user&lt;br&gt;update" style="rounded=1;whiteSpace=wrap;html=1;fontSize=12;glass=0;strokeWidth=1;shadow=0;" parent="1" vertex="1">
          <mxGeometry x="345" y="1300" width="150" height="40" as="geometry" />
        </mxCell>
        <mxCell id="1fBMuFGvleZSVorCwz0i-39" value="" style="rounded=0;html=1;jettySize=auto;orthogonalLoop=1;fontSize=11;endArrow=block;endFill=0;endSize=8;strokeWidth=1;shadow=0;labelBackgroundColor=none;edgeStyle=orthogonalEdgeStyle;exitX=0.5;exitY=1;exitDx=0;exitDy=0;entryX=0.5;entryY=0;entryDx=0;entryDy=0;" parent="1" source="1fBMuFGvleZSVorCwz0i-37" target="1fBMuFGvleZSVorCwz0i-38" edge="1">
          <mxGeometry x="-0.208" y="10" relative="1" as="geometry">
            <mxPoint as="offset" />
            <mxPoint x="429.76" y="1370" as="sourcePoint" />
            <mxPoint x="429.76" y="1440" as="targetPoint" />
          </mxGeometry>
        </mxCell>
        <mxCell id="oP_XDS5VSBd3Ip9JXlPo-2" value="Update Firmware" style="text;html=1;strokeColor=none;fillColor=none;align=center;verticalAlign=middle;whiteSpace=wrap;rounded=0;" vertex="1" parent="1">
          <mxGeometry x="400" y="610" width="60" height="30" as="geometry" />
        </mxCell>
        <mxCell id="oP_XDS5VSBd3Ip9JXlPo-3" value="" style="endArrow=classic;html=1;rounded=0;entryX=0.5;entryY=0;entryDx=0;entryDy=0;" edge="1" parent="1" target="oP_XDS5VSBd3Ip9JXlPo-4">
          <mxGeometry width="50" height="50" relative="1" as="geometry">
            <mxPoint x="570" y="650" as="sourcePoint" />
            <mxPoint x="570" y="690" as="targetPoint" />
          </mxGeometry>
        </mxCell>
        <mxCell id="oP_XDS5VSBd3Ip9JXlPo-4" value="Write Flash" style="rounded=1;whiteSpace=wrap;html=1;fontSize=12;glass=0;strokeWidth=1;shadow=0;" vertex="1" parent="1">
          <mxGeometry x="510" y="690" width="120" height="40" as="geometry" />
        </mxCell>
        <mxCell id="oP_XDS5VSBd3Ip9JXlPo-6" value="Read Flash" style="rounded=1;whiteSpace=wrap;html=1;fontSize=12;glass=0;strokeWidth=1;shadow=0;" vertex="1" parent="1">
          <mxGeometry x="650" y="690" width="120" height="40" as="geometry" />
        </mxCell>
        <mxCell id="oP_XDS5VSBd3Ip9JXlPo-7" value="" style="endArrow=classic;html=1;rounded=0;entryX=0.5;entryY=0;entryDx=0;entryDy=0;" edge="1" parent="1" target="oP_XDS5VSBd3Ip9JXlPo-8">
          <mxGeometry width="50" height="50" relative="1" as="geometry">
            <mxPoint x="850" y="650" as="sourcePoint" />
            <mxPoint x="850" y="690" as="targetPoint" />
          </mxGeometry>
        </mxCell>
        <mxCell id="oP_XDS5VSBd3Ip9JXlPo-8" value="Erase Flash" style="rounded=1;whiteSpace=wrap;html=1;fontSize=12;glass=0;strokeWidth=1;shadow=0;" vertex="1" parent="1">
          <mxGeometry x="790" y="690" width="120" height="40" as="geometry" />
        </mxCell>
        <mxCell id="oP_XDS5VSBd3Ip9JXlPo-9" value="" style="endArrow=classic;html=1;rounded=0;entryX=0.5;entryY=0;entryDx=0;entryDy=0;" edge="1" parent="1" target="oP_XDS5VSBd3Ip9JXlPo-10">
          <mxGeometry width="50" height="50" relative="1" as="geometry">
            <mxPoint x="990" y="650" as="sourcePoint" />
            <mxPoint x="990" y="690" as="targetPoint" />
          </mxGeometry>
        </mxCell>
        <mxCell id="oP_XDS5VSBd3Ip9JXlPo-10" value="Jump Flash" style="rounded=1;whiteSpace=wrap;html=1;fontSize=12;glass=0;strokeWidth=1;shadow=0;" vertex="1" parent="1">
          <mxGeometry x="930" y="690" width="120" height="40" as="geometry" />
        </mxCell>
        <mxCell id="oP_XDS5VSBd3Ip9JXlPo-11" value="Write Flash Memory" style="text;html=1;strokeColor=none;fillColor=none;align=center;verticalAlign=middle;whiteSpace=wrap;rounded=0;" vertex="1" parent="1">
          <mxGeometry x="540" y="610" width="60" height="30" as="geometry" />
        </mxCell>
        <mxCell id="oP_XDS5VSBd3Ip9JXlPo-12" value="Erase Flash Memory" style="text;html=1;strokeColor=none;fillColor=none;align=center;verticalAlign=middle;whiteSpace=wrap;rounded=0;" vertex="1" parent="1">
          <mxGeometry x="820" y="610" width="60" height="30" as="geometry" />
        </mxCell>
        <mxCell id="oP_XDS5VSBd3Ip9JXlPo-13" value="Jump Flash Memory" style="text;html=1;strokeColor=none;fillColor=none;align=center;verticalAlign=middle;whiteSpace=wrap;rounded=0;" vertex="1" parent="1">
          <mxGeometry x="960" y="610" width="60" height="30" as="geometry" />
        </mxCell>
        <mxCell id="oP_XDS5VSBd3Ip9JXlPo-14" value="Read&lt;br&gt;&amp;nbsp;Flash Memory" style="text;html=1;strokeColor=none;fillColor=none;align=center;verticalAlign=middle;whiteSpace=wrap;rounded=0;" vertex="1" parent="1">
          <mxGeometry x="680" y="610" width="60" height="30" as="geometry" />
        </mxCell>
        <mxCell id="oP_XDS5VSBd3Ip9JXlPo-17" value="" style="endArrow=classic;html=1;rounded=0;entryX=0.5;entryY=0;entryDx=0;entryDy=0;" edge="1" parent="1" target="1fBMuFGvleZSVorCwz0i-16">
          <mxGeometry width="50" height="50" relative="1" as="geometry">
            <mxPoint x="420" y="650" as="sourcePoint" />
            <mxPoint x="429.76" y="690" as="targetPoint" />
          </mxGeometry>
        </mxCell>
        <mxCell id="oP_XDS5VSBd3Ip9JXlPo-18" value="" style="endArrow=classic;html=1;rounded=0;entryX=0.5;entryY=0;entryDx=0;entryDy=0;" edge="1" parent="1">
          <mxGeometry width="50" height="50" relative="1" as="geometry">
            <mxPoint x="709.76" y="650" as="sourcePoint" />
            <mxPoint x="709.76" y="690" as="targetPoint" />
          </mxGeometry>
        </mxCell>
        <mxCell id="oP_XDS5VSBd3Ip9JXlPo-19" value="" style="endArrow=none;html=1;rounded=0;" edge="1" parent="1">
          <mxGeometry width="50" height="50" relative="1" as="geometry">
            <mxPoint x="420" y="650" as="sourcePoint" />
            <mxPoint x="990" y="650" as="targetPoint" />
          </mxGeometry>
        </mxCell>
        <mxCell id="oP_XDS5VSBd3Ip9JXlPo-20" value="" style="edgeStyle=orthogonalEdgeStyle;rounded=0;html=1;jettySize=auto;orthogonalLoop=1;fontSize=11;endArrow=block;endFill=0;endSize=8;strokeWidth=1;shadow=0;labelBackgroundColor=none;entryX=0.5;entryY=0;entryDx=0;entryDy=0;exitX=0.5;exitY=1;exitDx=0;exitDy=0;" edge="1" parent="1">
          <mxGeometry y="10" relative="1" as="geometry">
            <mxPoint as="offset" />
            <mxPoint x="569.8000000000001" y="730" as="sourcePoint" />
            <mxPoint x="569.8000000000001" y="780" as="targetPoint" />
          </mxGeometry>
        </mxCell>
        <mxCell id="oP_XDS5VSBd3Ip9JXlPo-21" value="Send data" style="rounded=1;whiteSpace=wrap;html=1;fontSize=12;glass=0;strokeWidth=1;shadow=0;" vertex="1" parent="1">
          <mxGeometry x="505" y="780" width="120" height="40" as="geometry" />
        </mxCell>
        <mxCell id="oP_XDS5VSBd3Ip9JXlPo-22" value="Goto option" style="rounded=1;whiteSpace=wrap;html=1;fontSize=12;glass=0;strokeWidth=1;shadow=0;" vertex="1" parent="1">
          <mxGeometry x="512.5" y="1000" width="115" height="40" as="geometry" />
        </mxCell>
        <mxCell id="oP_XDS5VSBd3Ip9JXlPo-23" value="" style="edgeStyle=orthogonalEdgeStyle;rounded=0;html=1;jettySize=auto;orthogonalLoop=1;fontSize=11;endArrow=block;endFill=0;endSize=8;strokeWidth=1;shadow=0;labelBackgroundColor=none;entryX=0.5;entryY=0;entryDx=0;entryDy=0;exitX=0.5;exitY=1;exitDx=0;exitDy=0;" edge="1" parent="1">
          <mxGeometry y="10" relative="1" as="geometry">
            <mxPoint as="offset" />
            <mxPoint x="569.8000000000001" y="820" as="sourcePoint" />
            <mxPoint x="569.8000000000001" y="870" as="targetPoint" />
          </mxGeometry>
        </mxCell>
        <mxCell id="oP_XDS5VSBd3Ip9JXlPo-25" value="" style="edgeStyle=orthogonalEdgeStyle;rounded=0;html=1;jettySize=auto;orthogonalLoop=1;fontSize=11;endArrow=block;endFill=0;endSize=8;strokeWidth=1;shadow=0;labelBackgroundColor=none;entryX=0.5;entryY=0;entryDx=0;entryDy=0;exitX=0.5;exitY=1;exitDx=0;exitDy=0;" edge="1" parent="1">
          <mxGeometry y="10" relative="1" as="geometry">
            <mxPoint as="offset" />
            <mxPoint x="709.8000000000001" y="730" as="sourcePoint" />
            <mxPoint x="709.8000000000001" y="780" as="targetPoint" />
          </mxGeometry>
        </mxCell>
        <mxCell id="oP_XDS5VSBd3Ip9JXlPo-26" value="Receive Data" style="rounded=1;whiteSpace=wrap;html=1;fontSize=12;glass=0;strokeWidth=1;shadow=0;" vertex="1" parent="1">
          <mxGeometry x="650" y="780" width="120" height="40" as="geometry" />
        </mxCell>
        <mxCell id="oP_XDS5VSBd3Ip9JXlPo-27" value="Goto option" style="rounded=1;whiteSpace=wrap;html=1;fontSize=12;glass=0;strokeWidth=1;shadow=0;" vertex="1" parent="1">
          <mxGeometry x="652.5" y="870" width="115" height="40" as="geometry" />
        </mxCell>
        <mxCell id="oP_XDS5VSBd3Ip9JXlPo-28" value="" style="edgeStyle=orthogonalEdgeStyle;rounded=0;html=1;jettySize=auto;orthogonalLoop=1;fontSize=11;endArrow=block;endFill=0;endSize=8;strokeWidth=1;shadow=0;labelBackgroundColor=none;entryX=0.5;entryY=0;entryDx=0;entryDy=0;exitX=0.5;exitY=1;exitDx=0;exitDy=0;" edge="1" parent="1">
          <mxGeometry y="10" relative="1" as="geometry">
            <mxPoint as="offset" />
            <mxPoint x="709.8000000000001" y="820" as="sourcePoint" />
            <mxPoint x="709.8000000000001" y="870" as="targetPoint" />
          </mxGeometry>
        </mxCell>
        <mxCell id="oP_XDS5VSBd3Ip9JXlPo-29" value="" style="edgeStyle=orthogonalEdgeStyle;rounded=0;html=1;jettySize=auto;orthogonalLoop=1;fontSize=11;endArrow=block;endFill=0;endSize=8;strokeWidth=1;shadow=0;labelBackgroundColor=none;entryX=0.5;entryY=0;entryDx=0;entryDy=0;exitX=0.5;exitY=1;exitDx=0;exitDy=0;" edge="1" parent="1">
          <mxGeometry y="10" relative="1" as="geometry">
            <mxPoint as="offset" />
            <mxPoint x="849.8000000000001" y="730" as="sourcePoint" />
            <mxPoint x="849.8000000000001" y="780" as="targetPoint" />
          </mxGeometry>
        </mxCell>
        <mxCell id="oP_XDS5VSBd3Ip9JXlPo-30" value="Send Erase" style="rounded=1;whiteSpace=wrap;html=1;fontSize=12;glass=0;strokeWidth=1;shadow=0;" vertex="1" parent="1">
          <mxGeometry x="790" y="780" width="120" height="40" as="geometry" />
        </mxCell>
        <mxCell id="oP_XDS5VSBd3Ip9JXlPo-32" value="" style="edgeStyle=orthogonalEdgeStyle;rounded=0;html=1;jettySize=auto;orthogonalLoop=1;fontSize=11;endArrow=block;endFill=0;endSize=8;strokeWidth=1;shadow=0;labelBackgroundColor=none;entryX=0.5;entryY=0;entryDx=0;entryDy=0;exitX=0.5;exitY=1;exitDx=0;exitDy=0;" edge="1" parent="1">
          <mxGeometry y="10" relative="1" as="geometry">
            <mxPoint as="offset" />
            <mxPoint x="849.8000000000001" y="820" as="sourcePoint" />
            <mxPoint x="849.8000000000001" y="870" as="targetPoint" />
          </mxGeometry>
        </mxCell>
        <mxCell id="oP_XDS5VSBd3Ip9JXlPo-33" value="Jump to application user&lt;br&gt;update" style="rounded=1;whiteSpace=wrap;html=1;fontSize=12;glass=0;strokeWidth=1;shadow=0;" vertex="1" parent="1">
          <mxGeometry x="915" y="940" width="150" height="40" as="geometry" />
        </mxCell>
        <mxCell id="oP_XDS5VSBd3Ip9JXlPo-34" value="" style="edgeStyle=orthogonalEdgeStyle;rounded=0;html=1;jettySize=auto;orthogonalLoop=1;fontSize=11;endArrow=block;endFill=0;endSize=8;strokeWidth=1;shadow=0;labelBackgroundColor=none;entryX=0.5;entryY=0;entryDx=0;entryDy=0;exitX=0.5;exitY=1;exitDx=0;exitDy=0;" edge="1" parent="1" source="oP_XDS5VSBd3Ip9JXlPo-10" target="oP_XDS5VSBd3Ip9JXlPo-33">
          <mxGeometry y="10" relative="1" as="geometry">
            <mxPoint as="offset" />
            <mxPoint x="864.71" y="830" as="sourcePoint" />
            <mxPoint x="864.71" y="880" as="targetPoint" />
            <Array as="points">
              <mxPoint x="990" y="940" />
            </Array>
          </mxGeometry>
        </mxCell>
        <mxCell id="oP_XDS5VSBd3Ip9JXlPo-35" value="ACK?" style="rhombus;whiteSpace=wrap;html=1;shadow=0;fontFamily=Helvetica;fontSize=12;align=center;strokeWidth=1;spacing=6;spacingTop=-4;" vertex="1" parent="1">
          <mxGeometry x="520" y="870" width="100" height="80" as="geometry" />
        </mxCell>
        <mxCell id="oP_XDS5VSBd3Ip9JXlPo-37" value="No" style="edgeStyle=orthogonalEdgeStyle;rounded=0;html=1;jettySize=auto;orthogonalLoop=1;fontSize=11;endArrow=block;endFill=0;endSize=8;strokeWidth=1;shadow=0;labelBackgroundColor=none;entryX=0;entryY=0.5;entryDx=0;entryDy=0;" edge="1" parent="1" target="oP_XDS5VSBd3Ip9JXlPo-21">
          <mxGeometry y="10" relative="1" as="geometry">
            <mxPoint as="offset" />
            <mxPoint x="460" y="910" as="targetPoint" />
            <mxPoint x="520" y="910" as="sourcePoint" />
            <Array as="points">
              <mxPoint x="490" y="910" />
              <mxPoint x="490" y="800" />
            </Array>
          </mxGeometry>
        </mxCell>
        <mxCell id="oP_XDS5VSBd3Ip9JXlPo-38" value="Yes" style="rounded=0;html=1;jettySize=auto;orthogonalLoop=1;fontSize=11;endArrow=block;endFill=0;endSize=8;strokeWidth=1;shadow=0;labelBackgroundColor=none;edgeStyle=orthogonalEdgeStyle;entryX=0.5;entryY=0;entryDx=0;entryDy=0;" edge="1" parent="1">
          <mxGeometry x="-0.208" y="10" relative="1" as="geometry">
            <mxPoint as="offset" />
            <mxPoint x="569.76" y="1000" as="targetPoint" />
            <mxPoint x="569.76" y="950" as="sourcePoint" />
          </mxGeometry>
        </mxCell>
        <mxCell id="oP_XDS5VSBd3Ip9JXlPo-39" value="Goto option" style="rounded=1;whiteSpace=wrap;html=1;fontSize=12;glass=0;strokeWidth=1;shadow=0;" vertex="1" parent="1">
          <mxGeometry x="795" y="1000" width="115" height="40" as="geometry" />
        </mxCell>
        <mxCell id="oP_XDS5VSBd3Ip9JXlPo-41" value="Yes" style="rounded=0;html=1;jettySize=auto;orthogonalLoop=1;fontSize=11;endArrow=block;endFill=0;endSize=8;strokeWidth=1;shadow=0;labelBackgroundColor=none;edgeStyle=orthogonalEdgeStyle;entryX=0.5;entryY=0;entryDx=0;entryDy=0;" edge="1" parent="1">
          <mxGeometry x="-0.208" y="10" relative="1" as="geometry">
            <mxPoint as="offset" />
            <mxPoint x="849.8" y="1000" as="targetPoint" />
            <mxPoint x="849.8" y="950" as="sourcePoint" />
          </mxGeometry>
        </mxCell>
        <mxCell id="oP_XDS5VSBd3Ip9JXlPo-42" value="ACK?" style="rhombus;whiteSpace=wrap;html=1;shadow=0;fontFamily=Helvetica;fontSize=12;align=center;strokeWidth=1;spacing=6;spacingTop=-4;" vertex="1" parent="1">
          <mxGeometry x="800" y="870" width="100" height="80" as="geometry" />
        </mxCell>
        <mxCell id="oP_XDS5VSBd3Ip9JXlPo-43" value="No" style="edgeStyle=orthogonalEdgeStyle;rounded=0;html=1;jettySize=auto;orthogonalLoop=1;fontSize=11;endArrow=block;endFill=0;endSize=8;strokeWidth=1;shadow=0;labelBackgroundColor=none;entryX=1;entryY=0.5;entryDx=0;entryDy=0;exitX=1;exitY=0.5;exitDx=0;exitDy=0;" edge="1" parent="1" source="oP_XDS5VSBd3Ip9JXlPo-42" target="oP_XDS5VSBd3Ip9JXlPo-30">
          <mxGeometry y="10" relative="1" as="geometry">
            <mxPoint as="offset" />
            <mxPoint x="955" y="800" as="targetPoint" />
            <mxPoint x="970" y="910" as="sourcePoint" />
            <Array as="points">
              <mxPoint x="940" y="910" />
              <mxPoint x="940" y="800" />
            </Array>
          </mxGeometry>
        </mxCell>
        <mxCell id="oP_XDS5VSBd3Ip9JXlPo-44" value="" style="endArrow=classic;html=1;rounded=0;exitX=1;exitY=0.5;exitDx=0;exitDy=0;" edge="1" parent="1" source="1fBMuFGvleZSVorCwz0i-10">
          <mxGeometry width="50" height="50" relative="1" as="geometry">
            <mxPoint x="710" y="630" as="sourcePoint" />
            <mxPoint x="760" y="650" as="targetPoint" />
          </mxGeometry>
        </mxCell>
        <mxCell id="oP_XDS5VSBd3Ip9JXlPo-45" value="" style="endArrow=classic;html=1;rounded=0;exitX=0;exitY=0.5;exitDx=0;exitDy=0;" edge="1" parent="1" source="1fBMuFGvleZSVorCwz0i-10">
          <mxGeometry width="50" height="50" relative="1" as="geometry">
            <mxPoint x="710" y="630" as="sourcePoint" />
            <mxPoint x="660" y="650" as="targetPoint" />
          </mxGeometry>
        </mxCell>
      </root>
    </mxGraphModel>
  </diagram>
</mxfile>
